<svg xmlns="http://www.w3.org/2000/svg" viewBox="0 0 341.75 204.97"><defs><style>.cls-1{fill:#f07575;}.cls-2{fill:#ede576;}.cls-3{fill:#93d8e4;}</style></defs><title>ke-logo</title><g id="Layer_2" data-name="Layer 2"><g id="Слой_2" data-name="Слой 2"><path class="cls-1" d="M105.1,140.5c-6.79,0-14.17,0-22.37-3-10.43-3-17.92-15.07-19.37-21.62-1.5-6.71-1.5-14.1-1.5-18.63a34.45,34.45,0,0,1,3.73-16.4c5.46-10.18,10.91-12.71,17.89-16.4h0a90.86,90.86,0,0,1,17.75-2.22c17.18-.29,31.62-14.48,31.44-31.67A29.29,29.29,0,0,0,102.86,1.12C86,1.12,73.79,10.81,71.55,30.93c-.58,5.24-.74,11.18-2.23,16.4-2.24,7.45-7.46,16.4-18.64,20.87-6.71,2.69-17.23,3-20.12,3a30.56,30.56,0,0,0,0,61.12c3,0,10.58-1,18.63,2.24C60.37,139,63.36,142,68.57,153.92a54.78,54.78,0,0,1,2.23,15.84,31.46,31.46,0,0,0,30.93,31.11c17.06.16,30.94-10.57,30.94-27.57S122,140.5,105.1,140.5Z"/><path class="cls-2" d="M211.31,28.32c0,6.79,0,14.17-3,22.36-3,10.44-15.07,17.93-21.62,19.38C180,71.55,173,71.18,168.45,71.18c-3.73,0-9.74.42-16.77-3.35C141.47,62.35,139,57,135.28,49.94c-1.49-7.45-2.23-12.16-2.23-19.38a30.56,30.56,0,0,0-61.12,0c0,16.88,9.69,29.07,29.81,31.3,5.24.59,11.18.75,16.4,2.24,7.45,2.24,16.4,7.45,20.87,18.63,2.69,6.72,3,17.24,3,20.13a30.56,30.56,0,0,0,61.12,0c0-3-1-10.58,2.24-18.63,4.47-11.19,7.45-14.17,19.37-19.38a56.36,56.36,0,0,1,17.15-2.24c16.88,0,29.81-14.43,29.81-31.31S261,.75,244.1.75,211.31,11.45,211.31,28.32Z"/><path class="cls-3" d="M281.37,99.88c0,6.78,0,14.16-3,22.36-3,10.43-15.07,17.92-21.62,19.38s-13.78,1.12-18.26,1.12c-2.63,0-9.73.41-16.77-3.36-10.21-5.48-12.69-10.87-16.39-17.89-1.5-7.45-2.24-12.16-2.24-19.38a30.56,30.56,0,0,0-61.12,0c0,16.88,9.69,29.07,29.81,31.31,5.24.58,11.18.74,16.4,2.23,7.46,2.24,16.4,7.46,20.87,18.64,2.69,6.72,3,17.23,3,20.12a30.56,30.56,0,0,0,61.12,0c0-3-1-10.58,2.24-18.63,4.47-11.18,7.45-14.16,19.38-19.38a56.29,56.29,0,0,1,17.14-2.24c16.88,0,29.82-14.42,29.82-31.3S331,72.3,314.17,72.3,281.37,83,281.37,99.88Z"/></g></g></svg>